<?xml version="1.0" standalone="yes"?><svg xmlns="http://www.w3.org/2000/svg" version="1.1" width="259" height="259" viewBox="0 0 259 259" shape-rendering="crispEdges"><rect x="0" y="0" width="259" height="259" fill="#efe1bf"/><path fill="#2b1810" d="M28 28h7v7H28V28M35 28h7v7H35V28M42 28h7v7H42V28M49 28h7v7H49V28M56 28h7v7H56V28M63 28h7v7H63V28M70 28h7v7H70V28M84 28h7v7H84V28M91 28h7v7H91V28M105 28h7v7H105V28M119 28h7v7H119V28M147 28h7v7H147V28M182 28h7v7H182V28M189 28h7v7H189V28M196 28h7v7H196V28M203 28h7v7H203V28M210 28h7v7H210V28M217 28h7v7H217V28M224 28h7v7H224V28M28 35h7v7H28V35M70 35h7v7H70V35M84 35h7v7H84V35M91 35h7v7H91V35M98 35h7v7H98V35M105 35h7v7H105V35M119 35h7v7H119V35M140 35h7v7H140V35M161 35h7v7H161V35M168 35h7v7H168V35M182 35h7v7H182V35M224 35h7v7H224V35M28 42h7v7H28V42M42 42h7v7H42V42M49 42h7v7H49V42M56 42h7v7H56V42M70 42h7v7H70V42M84 42h7v7H84V42M91 42h7v7H91V42M112 42h7v7H112V42M119 42h7v7H119V42M140 42h7v7H140V42M161 42h7v7H161V42M182 42h7v7H182V42M196 42h7v7H196V42M203 42h7v7H203V42M210 42h7v7H210V42M224 42h7v7H224V42M28 49h7v7H28V49M42 49h7v7H42V49M49 49h7v7H49V49M56 49h7v7H56V49M70 49h7v7H70V49M119 49h7v7H119V49M126 49h7v7H126V49M147 49h7v7H147V49M161 49h7v7H161V49M168 49h7v7H168V49M182 49h7v7H182V49M196 49h7v7H196V49M203 49h7v7H203V49M210 49h7v7H210V49M224 49h7v7H224V49M28 56h7v7H28V56M42 56h7v7H42V56M49 56h7v7H49V56M56 56h7v7H56V56M70 56h7v7H70V56M84 56h7v7H84V56M91 56h7v7H91V56M112 56h7v7H112V56M119 56h7v7H119V56M126 56h7v7H126V56M140 56h7v7H140V56M147 56h7v7H147V56M154 56h7v7H154V56M161 56h7v7H161V56M182 56h7v7H182V56M196 56h7v7H196V56M203 56h7v7H203V56M210 56h7v7H210V56M224 56h7v7H224V56M28 63h7v7H28V63M70 63h7v7H70V63M91 63h7v7H91V63M119 63h7v7H119V63M126 63h7v7H126V63M154 63h7v7H154V63M182 63h7v7H182V63M224 63h7v7H224V63M28 70h7v7H28V70M35 70h7v7H35V70M42 70h7v7H42V70M49 70h7v7H49V70M56 70h7v7H56V70M63 70h7v7H63V70M70 70h7v7H70V70M84 70h7v7H84V70M98 70h7v7H98V70M112 70h7v7H112V70M126 70h7v7H126V70M140 70h7v7H140V70M154 70h7v7H154V70M168 70h7v7H168V70M182 70h7v7H182V70M189 70h7v7H189V70M196 70h7v7H196V70M203 70h7v7H203V70M210 70h7v7H210V70M217 70h7v7H217V70M224 70h7v7H224V70M91 77h7v7H91V77M105 77h7v7H105V77M119 77h7v7H119V77M154 77h7v7H154V77M161 77h7v7H161V77M28 84h7v7H28V84M49 84h7v7H49V84M56 84h7v7H56V84M63 84h7v7H63V84M70 84h7v7H70V84M77 84h7v7H77V84M84 84h7v7H84V84M91 84h7v7H91V84M112 84h7v7H112V84M119 84h7v7H119V84M140 84h7v7H140V84M147 84h7v7H147V84M154 84h7v7H154V84M161 84h7v7H161V84M168 84h7v7H168V84M175 84h7v7H175V84M196 84h7v7H196V84M210 84h7v7H210V84M217 84h7v7H217V84M224 84h7v7H224V84M42 91h7v7H42V91M49 91h7v7H49V91M63 91h7v7H63V91M84 91h7v7H84V91M98 91h7v7H98V91M119 91h7v7H119V91M126 91h7v7H126V91M133 91h7v7H133V91M147 91h7v7H147V91M154 91h7v7H154V91M161 91h7v7H161V91M189 91h7v7H189V91M196 91h7v7H196V91M210 91h7v7H210V91M217 91h7v7H217V91M42 98h7v7H42V98M70 98h7v7H70V98M77 98h7v7H77V98M84 98h7v7H84V98M91 98h7v7H91V98M105 98h7v7H105V98M112 98h7v7H112V98M119 98h7v7H119V98M133 98h7v7H133V98M140 98h7v7H140V98M196 98h7v7H196V98M210 98h7v7H210V98M49 105h7v7H49V105M56 105h7v7H56V105M63 105h7v7H63V105M98 105h7v7H98V105M105 105h7v7H105V105M119 105h7v7H119V105M147 105h7v7H147V105M154 105h7v7H154V105M175 105h7v7H175V105M189 105h7v7H189V105M203 105h7v7H203V105M224 105h7v7H224V105M35 112h7v7H35V112M42 112h7v7H42V112M56 112h7v7H56V112M63 112h7v7H63V112M70 112h7v7H70V112M77 112h7v7H77V112M91 112h7v7H91V112M98 112h7v7H98V112M119 112h7v7H119V112M140 112h7v7H140V112M168 112h7v7H168V112M182 112h7v7H182V112M224 112h7v7H224V112M28 119h7v7H28V119M56 119h7v7H56V119M77 119h7v7H77V119M91 119h7v7H91V119M105 119h7v7H105V119M119 119h7v7H119V119M126 119h7v7H126V119M133 119h7v7H133V119M140 119h7v7H140V119M147 119h7v7H147V119M154 119h7v7H154V119M182 119h7v7H182V119M189 119h7v7H189V119M196 119h7v7H196V119M203 119h7v7H203V119M210 119h7v7H210V119M217 119h7v7H217V119M224 119h7v7H224V119M28 126h7v7H28V126M35 126h7v7H35V126M42 126h7v7H42V126M70 126h7v7H70V126M77 126h7v7H77V126M98 126h7v7H98V126M119 126h7v7H119V126M133 126h7v7H133V126M154 126h7v7H154V126M161 126h7v7H161V126M168 126h7v7H168V126M175 126h7v7H175V126M182 126h7v7H182V126M196 126h7v7H196V126M210 126h7v7H210V126M224 126h7v7H224V126M28 133h7v7H28V133M35 133h7v7H35V133M49 133h7v7H49V133M84 133h7v7H84V133M91 133h7v7H91V133M105 133h7v7H105V133M161 133h7v7H161V133M175 133h7v7H175V133M182 133h7v7H182V133M189 133h7v7H189V133M196 133h7v7H196V133M210 133h7v7H210V133M224 133h7v7H224V133M63 140h7v7H63V140M70 140h7v7H70V140M91 140h7v7H91V140M98 140h7v7H98V140M112 140h7v7H112V140M126 140h7v7H126V140M133 140h7v7H133V140M168 140h7v7H168V140M189 140h7v7H189V140M203 140h7v7H203V140M28 147h7v7H28V147M42 147h7v7H42V147M49 147h7v7H49V147M63 147h7v7H63V147M77 147h7v7H77V147M105 147h7v7H105V147M112 147h7v7H112V147M119 147h7v7H119V147M126 147h7v7H126V147M133 147h7v7H133V147M154 147h7v7H154V147M161 147h7v7H161V147M168 147h7v7H168V147M175 147h7v7H175V147M196 147h7v7H196V147M210 147h7v7H210V147M217 147h7v7H217V147M28 154h7v7H28V154M35 154h7v7H35V154M42 154h7v7H42V154M63 154h7v7H63V154M70 154h7v7H70V154M98 154h7v7H98V154M133 154h7v7H133V154M140 154h7v7H140V154M161 154h7v7H161V154M168 154h7v7H168V154M182 154h7v7H182V154M189 154h7v7H189V154M203 154h7v7H203V154M224 154h7v7H224V154M28 161h7v7H28V161M35 161h7v7H35V161M63 161h7v7H63V161M77 161h7v7H77V161M84 161h7v7H84V161M112 161h7v7H112V161M126 161h7v7H126V161M175 161h7v7H175V161M189 161h7v7H189V161M203 161h7v7H203V161M210 161h7v7H210V161M28 168h7v7H28V168M35 168h7v7H35V168M42 168h7v7H42V168M56 168h7v7H56V168M70 168h7v7H70V168M91 168h7v7H91V168M112 168h7v7H112V168M119 168h7v7H119V168M126 168h7v7H126V168M140 168h7v7H140V168M147 168h7v7H147V168M154 168h7v7H154V168M168 168h7v7H168V168M175 168h7v7H175V168M182 168h7v7H182V168M189 168h7v7H189V168M196 168h7v7H196V168M203 168h7v7H203V168M210 168h7v7H210V168M217 168h7v7H217V168M84 175h7v7H84V175M105 175h7v7H105V175M112 175h7v7H112V175M126 175h7v7H126V175M133 175h7v7H133V175M147 175h7v7H147V175M154 175h7v7H154V175M168 175h7v7H168V175M196 175h7v7H196V175M203 175h7v7H203V175M28 182h7v7H28V182M35 182h7v7H35V182M42 182h7v7H42V182M49 182h7v7H49V182M56 182h7v7H56V182M63 182h7v7H63V182M70 182h7v7H70V182M84 182h7v7H84V182M126 182h7v7H126V182M133 182h7v7H133V182M140 182h7v7H140V182M161 182h7v7H161V182M168 182h7v7H168V182M182 182h7v7H182V182M196 182h7v7H196V182M203 182h7v7H203V182M28 189h7v7H28V189M70 189h7v7H70V189M84 189h7v7H84V189M98 189h7v7H98V189M112 189h7v7H112V189M126 189h7v7H126V189M133 189h7v7H133V189M140 189h7v7H140V189M147 189h7v7H147V189M168 189h7v7H168V189M196 189h7v7H196V189M28 196h7v7H28V196M42 196h7v7H42V196M49 196h7v7H49V196M56 196h7v7H56V196M70 196h7v7H70V196M84 196h7v7H84V196M91 196h7v7H91V196M105 196h7v7H105V196M112 196h7v7H112V196M119 196h7v7H119V196M126 196h7v7H126V196M133 196h7v7H133V196M140 196h7v7H140V196M161 196h7v7H161V196M168 196h7v7H168V196M175 196h7v7H175V196M182 196h7v7H182V196M189 196h7v7H189V196M196 196h7v7H196V196M203 196h7v7H203V196M224 196h7v7H224V196M28 203h7v7H28V203M42 203h7v7H42V203M49 203h7v7H49V203M56 203h7v7H56V203M70 203h7v7H70V203M84 203h7v7H84V203M98 203h7v7H98V203M133 203h7v7H133V203M140 203h7v7H140V203M154 203h7v7H154V203M168 203h7v7H168V203M175 203h7v7H175V203M224 203h7v7H224V203M28 210h7v7H28V210M42 210h7v7H42V210M49 210h7v7H49V210M56 210h7v7H56V210M70 210h7v7H70V210M91 210h7v7H91V210M98 210h7v7H98V210M105 210h7v7H105V210M112 210h7v7H112V210M119 210h7v7H119V210M133 210h7v7H133V210M140 210h7v7H140V210M154 210h7v7H154V210M175 210h7v7H175V210M189 210h7v7H189V210M196 210h7v7H196V210M210 210h7v7H210V210M217 210h7v7H217V210M224 210h7v7H224V210M28 217h7v7H28V217M70 217h7v7H70V217M91 217h7v7H91V217M98 217h7v7H98V217M112 217h7v7H112V217M119 217h7v7H119V217M126 217h7v7H126V217M175 217h7v7H175V217M182 217h7v7H182V217M189 217h7v7H189V217M196 217h7v7H196V217M203 217h7v7H203V217M210 217h7v7H210V217M224 217h7v7H224V217M28 224h7v7H28V224M35 224h7v7H35V224M42 224h7v7H42V224M49 224h7v7H49V224M56 224h7v7H56V224M63 224h7v7H63V224M70 224h7v7H70V224M84 224h7v7H84V224M98 224h7v7H98V224M112 224h7v7H112V224M126 224h7v7H126V224M161 224h7v7H161V224M168 224h7v7H168V224M182 224h7v7H182V224M189 224h7v7H189V224M196 224h7v7H196V224"/></svg>