<?xml version="1.0" standalone="yes"?><svg xmlns="http://www.w3.org/2000/svg" version="1.1" width="259" height="259" viewBox="0 0 259 259" shape-rendering="crispEdges"><rect x="0" y="0" width="259" height="259" fill="#efe1bf"/><path fill="#2b1810" d="M28 28h7v7H28V28M35 28h7v7H35V28M42 28h7v7H42V28M49 28h7v7H49V28M56 28h7v7H56V28M63 28h7v7H63V28M70 28h7v7H70V28M112 28h7v7H112V28M119 28h7v7H119V28M126 28h7v7H126V28M140 28h7v7H140V28M161 28h7v7H161V28M182 28h7v7H182V28M189 28h7v7H189V28M196 28h7v7H196V28M203 28h7v7H203V28M210 28h7v7H210V28M217 28h7v7H217V28M224 28h7v7H224V28M28 35h7v7H28V35M70 35h7v7H70V35M91 35h7v7H91V35M98 35h7v7H98V35M119 35h7v7H119V35M126 35h7v7H126V35M133 35h7v7H133V35M147 35h7v7H147V35M154 35h7v7H154V35M182 35h7v7H182V35M224 35h7v7H224V35M28 42h7v7H28V42M42 42h7v7H42V42M49 42h7v7H49V42M56 42h7v7H56V42M70 42h7v7H70V42M91 42h7v7H91V42M112 42h7v7H112V42M119 42h7v7H119V42M133 42h7v7H133V42M147 42h7v7H147V42M182 42h7v7H182V42M196 42h7v7H196V42M203 42h7v7H203V42M210 42h7v7H210V42M224 42h7v7H224V42M28 49h7v7H28V49M42 49h7v7H42V49M49 49h7v7H49V49M56 49h7v7H56V49M70 49h7v7H70V49M91 49h7v7H91V49M98 49h7v7H98V49M105 49h7v7H105V49M112 49h7v7H112V49M119 49h7v7H119V49M126 49h7v7H126V49M154 49h7v7H154V49M182 49h7v7H182V49M196 49h7v7H196V49M203 49h7v7H203V49M210 49h7v7H210V49M224 49h7v7H224V49M28 56h7v7H28V56M42 56h7v7H42V56M49 56h7v7H49V56M56 56h7v7H56V56M70 56h7v7H70V56M91 56h7v7H91V56M112 56h7v7H112V56M119 56h7v7H119V56M126 56h7v7H126V56M133 56h7v7H133V56M154 56h7v7H154V56M182 56h7v7H182V56M196 56h7v7H196V56M203 56h7v7H203V56M210 56h7v7H210V56M224 56h7v7H224V56M28 63h7v7H28V63M70 63h7v7H70V63M84 63h7v7H84V63M98 63h7v7H98V63M119 63h7v7H119V63M126 63h7v7H126V63M133 63h7v7H133V63M140 63h7v7H140V63M147 63h7v7H147V63M161 63h7v7H161V63M168 63h7v7H168V63M182 63h7v7H182V63M224 63h7v7H224V63M28 70h7v7H28V70M35 70h7v7H35V70M42 70h7v7H42V70M49 70h7v7H49V70M56 70h7v7H56V70M63 70h7v7H63V70M70 70h7v7H70V70M84 70h7v7H84V70M98 70h7v7H98V70M112 70h7v7H112V70M126 70h7v7H126V70M140 70h7v7H140V70M154 70h7v7H154V70M168 70h7v7H168V70M182 70h7v7H182V70M189 70h7v7H189V70M196 70h7v7H196V70M203 70h7v7H203V70M210 70h7v7H210V70M217 70h7v7H217V70M224 70h7v7H224V70M91 77h7v7H91V77M98 77h7v7H98V77M105 77h7v7H105V77M126 77h7v7H126V77M133 77h7v7H133V77M147 77h7v7H147V77M168 77h7v7H168V77M28 84h7v7H28V84M49 84h7v7H49V84M63 84h7v7H63V84M70 84h7v7H70V84M84 84h7v7H84V84M98 84h7v7H98V84M105 84h7v7H105V84M140 84h7v7H140V84M154 84h7v7H154V84M168 84h7v7H168V84M175 84h7v7H175V84M189 84h7v7H189V84M49 91h7v7H49V91M56 91h7v7H56V91M77 91h7v7H77V91M91 91h7v7H91V91M126 91h7v7H126V91M140 91h7v7H140V91M168 91h7v7H168V91M175 91h7v7H175V91M182 91h7v7H182V91M203 91h7v7H203V91M224 91h7v7H224V91M28 98h7v7H28V98M42 98h7v7H42V98M49 98h7v7H49V98M70 98h7v7H70V98M91 98h7v7H91V98M98 98h7v7H98V98M112 98h7v7H112V98M147 98h7v7H147V98M161 98h7v7H161V98M175 98h7v7H175V98M189 98h7v7H189V98M196 98h7v7H196V98M203 98h7v7H203V98M210 98h7v7H210V98M217 98h7v7H217V98M35 105h7v7H35V105M42 105h7v7H42V105M126 105h7v7H126V105M140 105h7v7H140V105M161 105h7v7H161V105M168 105h7v7H168V105M182 105h7v7H182V105M196 105h7v7H196V105M210 105h7v7H210V105M217 105h7v7H217V105M28 112h7v7H28V112M35 112h7v7H35V112M42 112h7v7H42V112M49 112h7v7H49V112M70 112h7v7H70V112M77 112h7v7H77V112M91 112h7v7H91V112M112 112h7v7H112V112M147 112h7v7H147V112M161 112h7v7H161V112M168 112h7v7H168V112M175 112h7v7H175V112M182 112h7v7H182V112M189 112h7v7H189V112M203 112h7v7H203V112M217 112h7v7H217V112M224 112h7v7H224V112M42 119h7v7H42V119M56 119h7v7H56V119M84 119h7v7H84V119M91 119h7v7H91V119M98 119h7v7H98V119M105 119h7v7H105V119M112 119h7v7H112V119M161 119h7v7H161V119M168 119h7v7H168V119M175 119h7v7H175V119M35 126h7v7H35V126M49 126h7v7H49V126M56 126h7v7H56V126M70 126h7v7H70V126M84 126h7v7H84V126M91 126h7v7H91V126M112 126h7v7H112V126M147 126h7v7H147V126M154 126h7v7H154V126M168 126h7v7H168V126M182 126h7v7H182V126M189 126h7v7H189V126M196 126h7v7H196V126M203 126h7v7H203V126M210 126h7v7H210V126M217 126h7v7H217V126M224 126h7v7H224V126M35 133h7v7H35V133M56 133h7v7H56V133M63 133h7v7H63V133M84 133h7v7H84V133M91 133h7v7H91V133M98 133h7v7H98V133M105 133h7v7H105V133M119 133h7v7H119V133M126 133h7v7H126V133M133 133h7v7H133V133M147 133h7v7H147V133M154 133h7v7H154V133M168 133h7v7H168V133M203 133h7v7H203V133M217 133h7v7H217V133M49 140h7v7H49V140M56 140h7v7H56V140M70 140h7v7H70V140M77 140h7v7H77V140M105 140h7v7H105V140M112 140h7v7H112V140M119 140h7v7H119V140M126 140h7v7H126V140M133 140h7v7H133V140M147 140h7v7H147V140M161 140h7v7H161V140M168 140h7v7H168V140M175 140h7v7H175V140M217 140h7v7H217V140M35 147h7v7H35V147M49 147h7v7H49V147M56 147h7v7H56V147M77 147h7v7H77V147M84 147h7v7H84V147M91 147h7v7H91V147M98 147h7v7H98V147M105 147h7v7H105V147M140 147h7v7H140V147M147 147h7v7H147V147M182 147h7v7H182V147M189 147h7v7H189V147M203 147h7v7H203V147M224 147h7v7H224V147M28 154h7v7H28V154M63 154h7v7H63V154M70 154h7v7H70V154M77 154h7v7H77V154M119 154h7v7H119V154M140 154h7v7H140V154M147 154h7v7H147V154M168 154h7v7H168V154M175 154h7v7H175V154M182 154h7v7H182V154M217 154h7v7H217V154M224 154h7v7H224V154M56 161h7v7H56V161M63 161h7v7H63V161M77 161h7v7H77V161M98 161h7v7H98V161M112 161h7v7H112V161M119 161h7v7H119V161M133 161h7v7H133V161M147 161h7v7H147V161M154 161h7v7H154V161M161 161h7v7H161V161M168 161h7v7H168V161M182 161h7v7H182V161M196 161h7v7H196V161M217 161h7v7H217V161M224 161h7v7H224V161M28 168h7v7H28V168M42 168h7v7H42V168M56 168h7v7H56V168M63 168h7v7H63V168M70 168h7v7H70V168M84 168h7v7H84V168M105 168h7v7H105V168M112 168h7v7H112V168M126 168h7v7H126V168M154 168h7v7H154V168M161 168h7v7H161V168M168 168h7v7H168V168M175 168h7v7H175V168M182 168h7v7H182V168M189 168h7v7H189V168M196 168h7v7H196V168M210 168h7v7H210V168M84 175h7v7H84V175M105 175h7v7H105V175M119 175h7v7H119V175M140 175h7v7H140V175M161 175h7v7H161V175M168 175h7v7H168V175M196 175h7v7H196V175M210 175h7v7H210V175M217 175h7v7H217V175M224 175h7v7H224V175M28 182h7v7H28V182M35 182h7v7H35V182M42 182h7v7H42V182M49 182h7v7H49V182M56 182h7v7H56V182M63 182h7v7H63V182M70 182h7v7H70V182M98 182h7v7H98V182M119 182h7v7H119V182M126 182h7v7H126V182M140 182h7v7H140V182M147 182h7v7H147V182M168 182h7v7H168V182M182 182h7v7H182V182M196 182h7v7H196V182M217 182h7v7H217V182M28 189h7v7H28V189M70 189h7v7H70V189M84 189h7v7H84V189M91 189h7v7H91V189M105 189h7v7H105V189M112 189h7v7H112V189M119 189h7v7H119V189M133 189h7v7H133V189M154 189h7v7H154V189M161 189h7v7H161V189M168 189h7v7H168V189M196 189h7v7H196V189M203 189h7v7H203V189M210 189h7v7H210V189M217 189h7v7H217V189M28 196h7v7H28V196M42 196h7v7H42V196M49 196h7v7H49V196M56 196h7v7H56V196M70 196h7v7H70V196M91 196h7v7H91V196M126 196h7v7H126V196M133 196h7v7H133V196M140 196h7v7H140V196M147 196h7v7H147V196M168 196h7v7H168V196M175 196h7v7H175V196M182 196h7v7H182V196M189 196h7v7H189V196M196 196h7v7H196V196M217 196h7v7H217V196M224 196h7v7H224V196M28 203h7v7H28V203M42 203h7v7H42V203M49 203h7v7H49V203M56 203h7v7H56V203M70 203h7v7H70V203M84 203h7v7H84V203M98 203h7v7H98V203M119 203h7v7H119V203M126 203h7v7H126V203M147 203h7v7H147V203M154 203h7v7H154V203M161 203h7v7H161V203M182 203h7v7H182V203M189 203h7v7H189V203M196 203h7v7H196V203M203 203h7v7H203V203M210 203h7v7H210V203M217 203h7v7H217V203M28 210h7v7H28V210M42 210h7v7H42V210M49 210h7v7H49V210M56 210h7v7H56V210M70 210h7v7H70V210M98 210h7v7H98V210M105 210h7v7H105V210M112 210h7v7H112V210M140 210h7v7H140V210M147 210h7v7H147V210M161 210h7v7H161V210M196 210h7v7H196V210M203 210h7v7H203V210M210 210h7v7H210V210M224 210h7v7H224V210M28 217h7v7H28V217M70 217h7v7H70V217M91 217h7v7H91V217M105 217h7v7H105V217M119 217h7v7H119V217M126 217h7v7H126V217M140 217h7v7H140V217M147 217h7v7H147V217M154 217h7v7H154V217M161 217h7v7H161V217M168 217h7v7H168V217M217 217h7v7H217V217M28 224h7v7H28V224M35 224h7v7H35V224M42 224h7v7H42V224M49 224h7v7H49V224M56 224h7v7H56V224M63 224h7v7H63V224M70 224h7v7H70V224M84 224h7v7H84V224M112 224h7v7H112V224M133 224h7v7H133V224M147 224h7v7H147V224M168 224h7v7H168V224M175 224h7v7H175V224M182 224h7v7H182V224M196 224h7v7H196V224M203 224h7v7H203V224M217 224h7v7H217V224"/></svg>